<?xml version="1.0" encoding="UTF-8"?>
<svg id="Calque_1" xmlns="http://www.w3.org/2000/svg" version="1.1" xmlns:serif="http://www.serif.com/" viewBox="0 0 34 34">
  <!-- Generator: Adobe Illustrator 29.1.0, SVG Export Plug-In . SVG Version: 2.1.0 Build 142)  -->
  <defs>
    <style>
      .st0 {
        fill: #3b58b2;
        stroke: #3b58b2;
        stroke-width: .2px;
      }

      .st0, .st1 {
        stroke-miterlimit: 10;
      }

      .st2 {
        fill: #fff;
      }

      .st1 {
        fill: none;
        stroke: #b3c5ff;
      }

      .st3 {
        fill: #3c758b;
      }

      .st4 {
        display: none;
      }
    </style>
  </defs>
  <g id="Calque_11" data-name="Calque_1" class="st4">
    <path id="Dark_Blue" d="M29.8,0H4.2C1.9,0,0,1.9,0,4.2v25.5c0,2.4,1.9,4.3,4.2,4.3h25.5c2.3,0,4.2-1.9,4.2-4.2V4.2c0-2.3-1.8-4.2-4.1-4.2ZM25.5,12.7v.6c0,5.8-4.4,12.4-12.4,12.4s-4.8-.7-6.7-2c.3,0,.7.1,1,.1,2,0,3.9-.7,5.4-1.9-1.9,0-3.5-1.3-4.1-3,.3,0,.5,0,.8,0s.8,0,1.1-.1c-2-.4-3.5-2.2-3.5-4.3h0c.6.2,1.3.4,2,.4-1.2-.8-1.9-2.1-1.9-3.6s.2-1.5.6-2.2c2.2,2.6,5.4,4.4,9,4.6-.1-.3-.1-.7-.1-1,0-2.4,2-4.4,4.4-4.4s2.4.5,3.2,1.4c1-.2,1.9-.5,2.8-1-.3,1-1,1.9-1.9,2.4.9-.1,1.7-.3,2.5-.7-.7.8-1.4,1.6-2.2,2.2Z"/>
  </g>
  <g id="Calque_6" class="st4">
    <polygon class="st2" points="29 8.6 25.5 9.1 26.4 11.5 29 8.6"/>
    <path class="st0" d="M30.2,8.5c-.2-.1-.4-.1-.6,0-.2.2-.6.3-1,.4,1-1.2,1.1-1.9,1.1-2.1s-.1-.3-.3-.4c-.2,0-.4,0-.5,0-1.2.9-2.3,1-3,1-1.1-1-2.4-1.6-3.9-1.6-3.1,0-5.7,2.6-5.7,5.8s0,.5.1.8c-5.5-.1-9.9-5.3-9.9-5.3-.3-.1-.4-.2-.6-.1-.2,0-.3,0-.4.2-1.6,2.7-.5,5.1.4,6.5-.2-.1-.3-.2-.4-.2-.2-.1-.4-.1-.5,0-.2.1-.3.3-.3.4,0,2.6,1.2,4.1,2.4,4.9-.2,0-.3,0-.4.2,0,.1-.2.3,0,.5.8,2.7,2.8,3.6,4.1,3.9-2.6,2-6.4,1.4-6.5,1.4-.2,0-.5.1-.6.3,0,.2,0,.5.2.6,2.8,2.1,6,2.6,8.4,2.6s3.1-.3,3.2-.3c12-2.9,12.4-13.9,12.4-15.7,2.2-2.3,2.6-3.1,2.6-3.3.1-.2,0-.4-.2-.5ZM26.9,11.5c-.1.1-.2.3-.2.4,0,.5.6,12-11.6,14.9-.1,0-4.9,1-9.1-1.1,1.8,0,4.3-.5,6.1-2.5.1-.2.2-.4.1-.5-.1-.2-.3-.3-.5-.3h0s-2.7,0-3.9-2.5c.5,0,1.1,0,1.6-.2.2-.1.3-.3.3-.5s-.2-.4-.4-.4-3.1-.7-3.5-3.9c.5.2,1,.4,1.6.3.2,0,.4-.2.4-.4,0-.2,0-.4-.2-.5,0-.3-2.9-2.7-1.5-5.9,1.4,1.5,5.7,5.4,10.8,5.1.2,0,.3-.1.4-.2.1-.1.1-.3.1-.4-.1-.4-.1-.8-.1-1.2,0-2.6,2.1-4.8,4.7-4.8s2.5.5,3.3,1.4c.1.1.2.2.4.2.5,0,1.3-.1,2.3-.5-.3.4-.7.8-1.3,1.3-.2.1-.2.4-.2.6.1.2.3.3.5.3s.7-.1,1.4-.2c-.3.4-.8.9-1.5,1.5Z"/>
  </g>
  <g id="Calque_5" class="st4">
    <path class="st1" d="M27.4,16.8c0,.5-.5,1-1,1.3l-15.4,8.2c-.3,0-.3.3-.5.3-.3,0-.5,0-.5-.3-.3-.3-.5-.5-.5-1V8.7c0-.5.3-.8.5-1,.3-.3.8-.3,1.3,0l15.4,8.2c.4.2.7.4.7.9Z"/>
  </g>
  <path class="st3" d="M15.8,22.7c.4,0,.7.3.7.7s-.3.7-.7.7-.7-.3-.7-.7.3-.7.7-.7h0M26.7,18.4c-.4,0-.7-.3-.7-.7s.3-.7.7-.7.7.3.7.7c0,.4-.3.7-.7.7M26.7,15.6c-1.2,0-2.1,1-2.1,2.1s0,.5.1.7l-7.1,3.8c-.4-.6-1.1-.9-1.8-.9s-1.6.5-1.9,1.2l-6.4-3.4c-.7-.4-1.2-1.5-1.1-2.5,0-.5.2-.9.5-1.1.2-.1.4-.1.6,0h0c1.7.9,7.2,3.8,7.4,3.9.4.2.6.2,1.2-.1l11.4-5.9c.2-.1.4-.2.4-.5s-.3-.5-.4-.5c-.6-.3-1.6-.8-2.6-1.2-2.1-1-4.4-2.1-5.5-2.6-.9-.5-1.6-.1-1.7,0h-.2c-4.7,2.4-10.9,5.5-11.2,5.7-.6.4-1,1.2-1.1,2.1,0,1.5.7,3.1,1.8,3.7l6.7,3.5c.2,1.1,1.1,1.8,2.1,1.8s2.1-.9,2.1-2.1l7.4-4c.4.3.8.5,1.3.5,1.2,0,2.1-1,2.1-2.1.1-1.2-.8-2.1-2-2.1"/>
</svg>