<?xml version="1.0" encoding="UTF-8"?>
<svg id="Calque_1" xmlns="http://www.w3.org/2000/svg" version="1.1" xmlns:xlink="http://www.w3.org/1999/xlink" viewBox="0 0 45 45">
  <!-- Generator: Adobe Illustrator 29.1.0, SVG Export Plug-In . SVG Version: 2.1.0 Build 142)  -->
  <defs>
    <style>
      .st0 {
        fill: url(#Dégradé_sans_nom);
      }

      .st0, .st1 {
        stroke: #a4d6ff;
        stroke-miterlimit: 10;
        stroke-width: .5px;
      }

      .st2 {
        fill: #3c758b;
      }

      .st3 {
        display: none;
      }

      .st1 {
        fill: url(#Dégradé_sans_nom_2);
      }
    </style>
    <linearGradient id="Dégradé_sans_nom" data-name="Dégradé sans nom" x1="13" y1="-1010.5" x2="32" y2="-1010.5" gradientTransform="translate(0 -988) scale(1 -1)" gradientUnits="userSpaceOnUse">
      <stop offset="0" stop-color="#56adff"/>
      <stop offset="1" stop-color="#702ca4"/>
    </linearGradient>
    <linearGradient id="Dégradé_sans_nom_2" data-name="Dégradé sans nom 2" x1="16.2" y1="-1010.5" x2="30.8" y2="-1010.5" gradientTransform="translate(0 -988) scale(1 -1)" gradientUnits="userSpaceOnUse">
      <stop offset="0" stop-color="#56adff"/>
      <stop offset="1" stop-color="#702ca4"/>
    </linearGradient>
  </defs>
  <g id="Calque_2">
    <path class="st2" d="M12.5,21.5s8.1-3.3,10.9-4.5c1.1-.5,4.7-2,4.7-2,0,0,1.7-.7,1.5.9,0,.7-.4,3-.8,5.4-.6,3.5-1.2,7.4-1.2,7.4,0,0-.1,1.1-.9,1.3-.8.2-2.1-.7-2.3-.8-.2-.1-3.5-2.2-4.7-3.3-.3-.3-.7-.8,0-1.5,1.7-1.5,3.7-3.5,4.9-4.7s1.1-1.9-1.2-.3c-3.3,2.3-6.6,4.5-6.6,4.5,0,0-.7.5-2.2,0-1.4-.4-3-1-3-1,0,0-1.1-.6.9-1.4h0Z"/>
  </g>
  <g id="Calque_4" class="st3">
    <path class="st0" d="M31.6,16.5c-.3.1-.6.2-.9.3.4-.4.7-.9.8-1.5,0-.1,0-.3-.1-.3h-.4c-.7.4-1.4.7-2.1.8-.8-.7-1.8-1.2-2.9-1.2-2.2,0-4.1,1.8-4.1,4.1v.5c-2.8-.2-5.4-1.6-7.2-3.8-.1-.1-.2-.1-.3-.1s-.2.1-.2.2c-.4.6-.6,1.3-.6,2.1s.4,1.9,1,2.6c-.2-.1-.4-.1-.5-.2h-.2c-.1.1-.2.2-.2.3h0c0,1.6.8,2.9,2,3.6h-.3c-.1,0-.2,0-.3.1s0,.2,0,.3c.4,1.4,1.6,2.4,3,2.7-1.2.7-2.5,1.1-3.9,1.1s-.6,0-.9-.1c-.1,0-.3.1-.3.2s0,.3.1.4c1.8,1.1,3.8,1.7,5.9,1.7,4.2,0,6.8-2,8.2-3.6,1.8-2,2.8-4.8,2.8-7.4v-.3c.7-.5,1.3-1.2,1.8-1.9.1-.1.1-.3,0-.4,0-.2,0-.2-.1-.2Z"/>
  </g>
  <g id="Calque_3" class="st3">
    <path class="st1" d="M18.5,15.3l11.4,5.7c1.2.6,1.2,2.3,0,2.9l-11.4,5.7c-1.1.5-2.4-.2-2.4-1.5v-11.3c.1-1.2,1.3-2,2.4-1.5Z"/>
  </g>
</svg>